{
  "accessors": [
    {
      "bufferView": 0,
      "componentType": 5125,
      "count": 324,
      "type": "SCALAR"
    },
    {
      "bufferView": 1,
      "componentType": 5126,
      "count": 76,
      "max": [
        5.96046447753906e-08,
        0.0,
        2.0
      ],
      "min": [
        -2.0,
        -2.0,
        0.0
      ],
      "type": "VEC3"
    },
    {
      "bufferView": 2,
      "componentType": 5126,
      "count": 76,
      "type": "VEC3"
    },
    {
      "bufferView": 3,
      "componentType": 5126,
      "count": 76,
      "type": "VEC2"
    }
  ],
  "asset": {
    "generator": "Adobe Substance 3D Painter 7.4.0",
    "version": "2.0"
  },
  "bufferViews": [
    {
      "buffer": 0,
      "byteLength": 1296,
      "target": 34963
    },
    {
      "buffer": 0,
      "byteLength": 912,
      "byteOffset": 1296,
      "target": 34962
    },
    {
      "buffer": 0,
      "byteLength": 912,
      "byteOffset": 2208,
      "target": 34962
    },
    {
      "buffer": 0,
      "byteLength": 608,
      "byteOffset": 3120,
      "target": 34962
    }
  ],
  "buffers": [
    {
      "byteLength": 3728,
      "uri": "stone_platform.bin"
    }
  ],
  "images": [
    {
      "uri": "stone_platform_1_baseColor.png"
    },
    {
      "uri": "stone_platform_1_occlusionRoughnessMetallic.png"
    },
    {
      "uri": "stone_platform_1_normal.png"
    }
  ],
  "materials": [
    {
      "alphaMode": "OPAQUE",
      "name": "stone_platform_1",
      "normalTexture": {
        "index": 2
      },
      "occlusionTexture": {
        "index": 1
      },
      "pbrMetallicRoughness": {
        "baseColorTexture": {
          "index": 0
        },
        "metallicRoughnessTexture": {
          "index": 1
        }
      }
    }
  ],
  "meshes": [
    {
      "name": "platform_lp",
      "primitives": [
        {
          "attributes": {
            "NORMAL": 2,
            "POSITION": 1,
            "TEXCOORD_0": 3
          },
          "indices": 0,
          "material": 0,
          "mode": 4
        }
      ]
    }
  ],
  "nodes": [
    {
      "children": [
        1
      ],
      "name": "RootNode"
    },
    {
      "children": [
        2
      ],
      "name": "platform_lp",
      "rotation": [
        -0.70710676908493,
        -5.76011629505047e-08,
        -5.76011629505047e-08,
        0.70710676908493
      ]
    },
    {
      "mesh": 0,
      "name": "platform_lp"
    }
  ],
  "samplers": [
    {
      "magFilter": 9729,
      "minFilter": 9985,
      "wrapS": 10497,
      "wrapT": 10497
    }
  ],
  "scene": 0,
  "scenes": [
    {
      "name": "Scene",
      "nodes": [
        0
      ]
    }
  ],
  "textures": [
    {
      "sampler": 0,
      "source": 0
    },
    {
      "sampler": 0,
      "source": 1
    },
    {
      "sampler": 0,
      "source": 2
    }
  ]
}